<?xml version="1.0" encoding="utf-8"?>
<!-- Generator: Adobe Illustrator 23.1.1, SVG Export Plug-In . SVG Version: 6.00 Build 0)  -->
<svg version="1.1" id="Laag_1" xmlns="http://www.w3.org/2000/svg" xmlns:xlink="http://www.w3.org/1999/xlink" x="0px" y="0px"
	 viewBox="0 0 228.79 159.8" style="enable-background:new 0 0 228.79 159.8;" xml:space="preserve" height="80" width="115">
<style type="text/css">
	.st0{fill:#FFFFFF;}
	.st1{fill:#E6007E;}
</style>
<g>
	<path class="st0" d="M222.91,0c-3.25,0-5.9,2.67-5.9,5.96c0,3.35,2.59,5.98,5.9,5.98c3.3,0,5.88-2.63,5.88-5.98
		C228.79,2.67,226.17,0,222.91,0z M222.99,10.66h-0.05c-2.49,0-4.44-2.07-4.44-4.7c0-2.58,1.98-4.68,4.42-4.68h0.03
		c2.44,0,4.42,2.11,4.42,4.7c0,1.26-0.46,2.43-1.28,3.31C225.26,10.17,224.16,10.66,222.99,10.66z"/>
</g>
<g>
	<path class="st0" d="M225.98,5.92c0.23-0.46,0.17-1.09,0.15-1.27c0-0.02,0-0.05-0.01-0.08c-0.03-0.35-0.13-1.43-1.77-1.43h-4.21
		c-0.19,0-0.36,0.07-0.49,0.2c-0.21,0.21-0.22,0.5-0.22,0.55c0,0.35,0.22,0.72,0.68,0.75h4.29c0.12,0,0.16,0.04,0.17,0.06
		c0.07,0.08,0.09,0.27,0.08,0.37l0,0.05c0,0.2-0.04,0.21-0.26,0.24l-4.31,0c-0.57,0.04-0.65,0.42-0.65,0.65v2.11
		c0,0.32,0.25,0.66,0.71,0.66c0.09,0,0.4-0.01,0.6-0.23c0.12-0.12,0.18-0.27,0.17-0.43V6.84h3.62h0.17c0.05,0,0.09,0.02,0.14,0.05
		c0.04,0.05,0.07,0.1,0.08,0.16v0.98c0,0.05-0.02,0.31,0.17,0.51c0.09,0.1,0.26,0.22,0.54,0.22c0.5,0,0.73-0.19,0.78-0.63l0.01-0.08
		V7.09C226.44,6.54,226.2,6.16,225.98,5.92z"/>
</g>
<g>
	<path class="st0" d="M220.03,4.55c0.5,0,0.5-0.77,0-0.77C219.53,3.78,219.53,4.55,220.03,4.55L220.03,4.55z"/>
</g>
<g>
	<path class="st0" d="M36.63,126.34h0.02C36.65,126.34,36.64,126.34,36.63,126.34L36.63,126.34z"/>
</g>
<g>
	<path class="st0" d="M80.02,102.09L80.02,102.09l0.27,0.23C80.19,102.25,80.1,102.17,80.02,102.09z"/>
</g>
<path class="st0" d="M222.02,37.78c0-11.63-5.18-23.17-16.22-27.78c-4.05-1.69-8.48-1.97-12.89-1.98c-2,0-4,0.05-5.95,0.05
	c-23.49,0-173.84,0-183.56,0h0c-0.5,0-0.93,0.09-1.31,0.25C1.9,8.4,1.72,8.49,1.56,8.61C1.4,8.72,1.25,8.84,1.11,8.98
	C1.09,9,1.06,9.02,1.04,9.05C1,9.08,0.97,9.12,0.93,9.16c-0.54,0.54-0.9,1.29-0.9,2.28C0.03,31.17,0.01,113.77,0,135.34
	c0,8.34,4.57,16.54,11.75,20.77c7.21,4.26,15.68,3.66,23.73,3.66c22.5,0.01,172.86-0.01,183.17,0c1.83,0,3.36-1.53,3.36-3.36
	c0-7.15,0-23.3,0-41.48c0,0,0,0,0,0C222.02,81.59,222.02,41.48,222.02,37.78z M215.29,153.03c-15.11,0-166.18,0.03-184.71,0.02
	c-4.48,0-8.74-0.03-13.03-1.58c-2.97-1.07-5.22-2.91-7.18-5.35c-0.3-0.37-1.29-2.02-1.76-2.95c-0.41-0.82-0.69-1.54-1.1-2.95
	c-0.26-0.89-0.46-1.8-0.62-2.72c-0.02-0.11-0.03-0.18-0.04-0.24c0-0.03,0-0.05-0.01-0.1c-0.04-0.3-0.06-0.6-0.08-0.89
	c-0.02-0.33-0.02-0.66-0.02-1c0-0.65,0-8.19,0.01-19.22l0,0c0-0.64,0-1.3,0-1.96c0-0.66,0-1.32,0-2c0-0.52,0-1.05,0-1.59
	c0-0.42,0-0.84,0-1.26c0.01-24.18,0.02-59.39,0.02-79.59c0-0.05,0-0.09,0-0.14c0-4.82,0-8.76,0-11.5c0-0.17,0-0.33,0-0.49
	c0-0.51,0-0.96,0-1.37c0-0.03,0-0.06,0-0.09c0-0.51,0-0.95,0-1.29c13.81,0,167.31,0,186.73,0c1.39,0,2.77,0.04,4.13,0.18
	c1.37,0.13,2.72,0.36,4.09,0.73c0.4,0.11,0.79,0.23,1.17,0.37c5.71,2.02,9.33,6.79,11.03,12.08c0.39,1.22,0.68,2.47,0.92,3.73
	c0.04,0.19,0.18,1.13,0.21,1.29c0.06,0.5,0.11,1.01,0.16,1.51c0.09,1.11,0.08,2.23,0.08,3.34
	C215.29,40.58,215.29,140.88,215.29,153.03z"/>
<g>
	<path class="st1" d="M109.62,89.74c3.07,0,4.7-2.24,4.88-4.62h0.02V26c0-2.53-1.64-5.06-4.9-5.06c-3.14,0-4.77,2.34-4.89,4.77
		c0,0,0,0.01,0,0.01c-0.01,0.19-0.01,0.38,0,0.56v58.1c-0.01,0.19-0.01,0.38,0,0.58c0.01,0.12,0.01,0.23,0.03,0.35
		C105.01,87.62,106.63,89.74,109.62,89.74z"/>
</g>
<g>
	<path class="st1" d="M140.44,89.12h52.79c1.71-0.19,14.83,0,14.84-14.84v-16.8c0.07-2.36-1.33-4.78-4.21-5.03
		c-0.08-0.01-0.17-0.03-0.26-0.04h-50.6v0.06c-5.96,0.55-5.78,10.06,0.54,10.06c0.24,0,0.46-0.02,0.68-0.04h43.77l0.09,11.32
		c-0.05,3.42-1.78,5.15-4.38,5.23h-54.02c-8.3-0.16-7.67-7.26-7.8-8.28V42.32c0.13-1.33-0.69-10.27,8.56-10.37h53.26
		c0,0,5.14,0.06,5.17,5.64h0.04c0.15,2.21,1.64,4.31,4.5,4.31c3.15,0,4.65-2.56,4.5-5c0.05-3.62-0.32-14.94-14.68-14.94h-52.79
		c-18.36,0-17.92,16.17-18.36,18.83v32.25C122.22,89.12,137.9,89.12,140.44,89.12z"/>
</g>
<g>
	<path class="st1" d="M18.07,31.47c0.14,0,0.28-0.01,0.41-0.02v0.04h57.35c6.13-0.05,6.41,7.3,6.42,8.54
		c0.01,1.41-0.68,7.29-7.17,7.34h-55.7c-0.09,0-0.19,0-0.29,0.01c-0.11,0-0.21-0.01-0.32-0.01c-1.73,0-2.98,0.74-3.76,1.8
		c-0.53,0.73-0.85,1.61-0.94,2.52c-0.02,0.21-0.03,0.42-0.03,0.64v32.32c0,0.05,0,0.09,0,0.14c0,0.13,0.01,0.26,0.02,0.39
		c0.19,2.28,1.75,4.42,4.71,4.42c0.19,0,0.37-0.01,0.54-0.02h57.28c23.1,0,23.37-15.35,23.37-21.52c0-10.11-9.33-17.2-11.49-18.21
		c0.95-1.2,4.01-3.41,3.77-12.37c-0.07-2.63-2.93-15.77-14.89-15.77H17.56l0,0.03C11.78,22.24,11.95,31.47,18.07,31.47z
		 M89.47,68.33c0,0,0.28,11.18-11.83,11.17h-53.8V57.16h53.52C89.87,57.2,89.47,68.33,89.47,68.33z"/>
</g>
<g>
	<path class="st0" d="M139.03,97.13c-0.77,0-1.41,0.2-1.93,0.53c-0.17,0.11-0.33,0.23-0.47,0.37l-25.17,20.15L84.9,96.76
		c-0.29-0.3-0.64-0.54-1.05-0.71c-0.41-0.17-0.89-0.27-1.42-0.27c-1.81,0-2.92,1.09-3.32,2.43c-0.3,1-0.2,2.14,0.29,3.06
		c0.16,0.3,0.37,0.59,0.63,0.83l0,0l0,0c0.08,0.08,0.17,0.15,0.27,0.23c0,0,0.01,0.01,0.01,0.01l27.27,22.45l0.02,17.76
		c0,0.1,0,0.2,0,0.31c0,0.05,0,0.11,0.01,0.15c0.13,1.74,1.32,3.39,3.57,3.39c2.22,0,3.41-1.6,3.56-3.31c0-0.03,0.01-0.05,0.01-0.08
		c0.01-0.21,0.01-0.42,0-0.63l-0.01-17.59l26.47-21.12l0,0h0l0,0c0.15-0.11,0.28-0.24,0.4-0.37c0.33-0.37,0.57-0.8,0.72-1.27
		c0.13-0.39,0.2-0.8,0.21-1.21C142.55,98.98,141.38,97.13,139.03,97.13z"/>
	<path class="st0" d="M203.23,97.04c-0.15,0.13-0.29,0.27-0.44,0.43l-23.82,23.26l0,0l-2.31,2.26l-1.87-1.83l0,0l-24.26-23.69
		c-0.15-0.16-0.29-0.3-0.44-0.43c-0.57-0.49-1.16-0.72-1.72-0.76c-0.02,0-0.04-0.01-0.05-0.01c-0.97-0.04-1.84,0.5-2.41,1.33
		c-0.36,0.52-0.6,1.16-0.65,1.84v43.16c0,0.06,0,0.12,0,0.18c0,0.07,0,0.15,0.01,0.22c0.13,1.74,1.32,3.39,3.57,3.39
		c2.25,0,3.44-1.65,3.57-3.39c0-0.07,0.01-0.13,0.01-0.2c0-0.08,0-0.15,0-0.22v-19.51v-13.49l0.14-0.21l11.2,10.71l2.01,1.93l0,0
		l8.15,7.8c0.6,0.73,1.51,1.23,2.74,1.23c1.05,0,1.86-0.36,2.45-0.91c0.02-0.01,0.05-0.02,0.07-0.03l21.59-20.73l0.14,0.21v8.52V143
		h0.02c0.12,1.75,1.31,3.41,3.57,3.41c2.53,0,3.71-2.07,3.57-4.02v-25.28V99.44v0C207.88,97.07,205.45,95.15,203.23,97.04z"/>
</g>
<path class="st0" d="M76.64,103.79c-0.06-0.16-0.12-0.33-0.18-0.49c-0.13-0.33-0.28-0.66-0.46-0.99c-0.09-0.17-0.18-0.33-0.28-0.5
	c-0.2-0.33-0.42-0.66-0.68-0.98c-0.13-0.16-0.27-0.32-0.41-0.48c-0.21-0.23-0.45-0.46-0.7-0.68c-0.21-0.18-0.42-0.36-0.65-0.53
	c-1.11-0.82-2.53-1.5-4.35-1.93c-0.13-0.03-0.27-0.06-0.4-0.09c-1.19-0.25-2.54-0.39-4.08-0.39H27.43c-0.61,0.04-2.59,0.12-4.85,0.9
	c-0.19,0.07-0.38,0.14-0.57,0.21c-0.96,0.38-1.95,0.89-2.89,1.58c-0.19,0.14-0.38,0.28-0.56,0.44c-0.55,0.46-1.08,0.98-1.58,1.59
	c-0.66,0.81-1.24,1.75-1.71,2.86c-0.36,0.83-0.65,1.76-0.86,2.78c-0.21,1.03-0.35,2.15-0.39,3.4v6.69v16.87
	c0,2.35,1.3,11.74,13.41,11.74h38.56c1.25-0.14,10.81,0,10.84-10.84v-12.5c-0.01-0.01-0.01-0.01-0.02-0.02
	c-0.1-1.66-1.16-3.23-3.18-3.42c-0.02-0.01-0.04-0.03-0.07-0.04l-36.27,0.01c-0.15-0.02-0.31-0.03-0.47-0.03
	c-4.71,0-4.77,7.2-0.19,7.4c0.01,0,0.01,0,0.02,0c0.06,0,0.11,0.01,0.17,0.01c0.06,0,0.12,0,0.17-0.01l32.47-0.01l0.07,8.27
	c-0.23,2.04-1.3,3.31-3.2,3.82H26.88c-0.74-0.1-5.74-0.73-5.7-6.05v-14.18v-6.59c0.01-0.12,0.03-0.33,0.05-0.61
	c0.06-0.55,0.16-1.36,0.41-2.23c0.25-0.87,0.63-1.81,1.24-2.62c0.3-0.4,0.67-0.78,1.09-1.09c0.43-0.32,0.92-0.57,1.49-0.75
	c0.57-0.18,1.22-0.28,1.96-0.27h38.6c0,0,0.02,0,0.05,0c0.09,0,0.3,0.01,0.58,0.06c0.22,0.04,0.49,0.1,0.77,0.19
	c0.2,0.07,0.41,0.14,0.62,0.25c0.76,0.38,1.53,1.05,1.88,2.22c0.12,0.39,0.19,0.83,0.2,1.34h0.01c0.03,0.9,0.34,1.79,0.94,2.45
	c0.6,0.66,1.47,1.1,2.64,1.1c1.46,0,2.47-0.69,3.04-1.65c0.34-0.58,0.52-1.25,0.54-1.93h0.01v0l0,0
	C77.3,107.48,77.31,105.73,76.64,103.79z"/>
</svg>
