<?xml version="1.0" encoding="utf-8"?>
<!-- Generator: Adobe Illustrator 23.1.1, SVG Export Plug-In . SVG Version: 6.00 Build 0)  -->
<svg version="1.1" id="Laag_1" xmlns="http://www.w3.org/2000/svg" xmlns:xlink="http://www.w3.org/1999/xlink" x="0px" y="0px"
	 viewBox="0 0 222.22 151.92" style="enable-background:new 0 0 222.22 151.92;" xml:space="preserve" height="80" width="115">
<style type="text/css">
	.st0{fill:#D3C000;}
	.st1{fill:#FFFFFF;}
	.st2{fill:none;stroke:#D3C000;stroke-width:10;stroke-miterlimit:10;}
	.st3{fill:#FFED00;}
	.st4{fill:#FDEB19;}
</style>
<g>
	<path class="st0" d="M13.81,6.64l-0.02,0.02C13.8,6.65,13.8,6.64,13.81,6.64"/>
	<path class="st0" d="M13.81,6.64l-0.02,0.02C13.79,6.65,13.8,6.64,13.81,6.64"/>
	<path class="st1" d="M83.81,29.32l-2.79-6.87h0.84l2.36,5.95l2.37-5.95h0.82l-2.81,6.87H83.81z"/>
	<path class="st1" d="M95.39,27.59l-0.77,1.74h-0.83l3.08-6.87h0.81l3.07,6.87H99.9l-0.76-1.74H95.39z M97.26,23.35l-1.53,3.48h3.08
		L97.26,23.35z"/>
	<path class="st1" d="M113.46,29.32l-4.12-5.51v5.51h-0.78v-6.87h0.81l4.12,5.52v-5.52h0.77v6.87H113.46z"/>
	<path class="st1" d="M123.67,27.59l-0.77,1.74h-0.83l3.08-6.87h0.81l3.07,6.87h-0.85l-0.76-1.74H123.67z M125.53,23.35L124,26.83
		h3.08L125.53,23.35z"/>
	<path class="st1" d="M137.62,23.21v2.41h3.21v0.76h-3.21v2.94h-0.78v-6.87h4.36v0.76H137.62z"/>
	<path class="st2" d="M137.01,50.36"/>
	<path class="st3" d="M203.85,47.51c-0.27-0.93-0.64-1.83-1.1-2.7c-0.43-0.82-0.93-1.59-1.5-2.31c-0.06-0.08-0.14-0.16-0.21-0.23
		c-0.8-0.74-1.62-1.39-2.47-1.95c-0.89-0.58-1.85-1.01-2.87-1.28c-1-0.26-2.05-0.43-3.14-0.49c-0.04,0-0.08,0-0.12,0H171.6
		c-0.05,0-0.1,0-0.14,0.01c-0.89,0.07-1.72,0.21-2.5,0.44c-0.8,0.24-1.6,0.53-2.39,0.88c-0.79,0.35-1.51,0.8-2.15,1.37
		c-0.88,0.76-1.63,1.61-2.26,2.56c-0.63,0.95-1.11,1.94-1.46,2.98c-0.34,1-0.58,2.04-0.74,3.1c-0.01,0.08-0.02,0.16-0.02,0.24
		l0.08,17.53c0,0.11,0.01,0.23,0.04,0.34c0.15,0.73,0.31,1.42,0.48,2.08c0.18,0.71,0.47,1.4,0.88,2.08c0.39,0.65,0.79,1.26,1.2,1.83
		c0.04,0.06,0.09,0.12,0.14,0.17c0.83,0.94,1.77,1.72,2.83,2.33c1.09,0.63,2.19,1.11,3.31,1.44c1.1,0.32,2.22,0.53,3.37,0.63
		c0.05,0,0.11,0.01,0.16,0.01h20.14c0.06,0,0.12,0,0.18-0.01c0.94-0.1,1.84-0.25,2.69-0.46c0.88-0.22,1.74-0.54,2.57-0.97
		c0.83-0.43,1.61-0.95,2.35-1.59c0.91-0.82,1.65-1.74,2.22-2.77c0.57-1.02,1.01-2.08,1.33-3.17c0.31-1.09,0.5-2.22,0.55-3.38
		l-0.09-15.78c0-0.04,0-0.08,0-0.12C204.28,49.36,204.12,48.42,203.85,47.51z M197.82,50.24l0.09,16.07c0,0.12-0.01,0.23-0.04,0.35
		l-0.35,1.53c-0.04,0.16-0.1,0.31-0.18,0.45c-0.18,0.29-0.36,0.61-0.55,0.95c-0.23,0.43-0.51,0.78-0.85,1.06
		c-0.27,0.23-0.53,0.43-0.78,0.6c-0.11,0.08-0.24,0.13-0.38,0.18l-1.88,0.58c-0.15,0.05-0.3,0.07-0.46,0.07h-20.31
		c-0.09,0-0.18-0.01-0.28-0.02c-0.37-0.06-0.74-0.14-1.12-0.24c-0.42-0.11-0.82-0.28-1.19-0.52c-0.31-0.2-0.65-0.39-1-0.58
		c-0.13-0.07-0.26-0.15-0.37-0.25c-0.34-0.31-0.62-0.65-0.86-1.01c-0.28-0.43-0.48-0.91-0.61-1.44c-0.12-0.51-0.21-1.02-0.26-1.52
		c-0.01-0.06-0.01-0.11-0.01-0.17l-0.1-15.24c0-0.06,0-0.11,0.01-0.17c0.05-0.5,0.13-0.97,0.24-1.41c0.12-0.46,0.29-0.91,0.52-1.35
		c0.21-0.4,0.44-0.78,0.69-1.13c0.05-0.07,0.11-0.14,0.17-0.2c0.34-0.34,0.68-0.62,1.01-0.85c0.36-0.25,0.77-0.45,1.23-0.59
		c0.39-0.12,0.77-0.22,1.12-0.31c0.12-0.03,0.25-0.04,0.37-0.04h20.85c0.11,0,0.22,0.01,0.34,0.03c0.3,0.06,0.61,0.15,0.93,0.25
		c0.38,0.13,0.75,0.28,1.13,0.47c0.29,0.15,0.56,0.29,0.81,0.44c0.14,0.09,0.28,0.19,0.39,0.31c0.27,0.3,0.51,0.62,0.71,0.98
		c0.24,0.43,0.45,0.86,0.62,1.3c0.15,0.39,0.25,0.76,0.32,1.12C197.81,50.04,197.82,50.14,197.82,50.24z"/>
	<path class="st3" d="M92.25,38.57c-0.09,0-0.18,0.01-0.27,0.01c-0.02,0-0.05-0.01-0.07-0.01H22.42c-0.12,0-0.64,0-0.78,0
		c-2.33,0-4.05,1.88-3.84,4.21c0.21,2.32,2.27,4.21,4.6,4.21c0.15,0,0.29,0.02,0.43,0.01h60.62l-42.86,65.57
		c-0.54,0.73-0.82,1.66-0.73,2.68c0.21,2.32,2.26,4.2,4.59,4.2c1.38,0,2.54-0.67,3.22-1.69c0.01-0.01,0.01-0.01,0.02-0.02
		l48.05-73.36c0.39-0.6,0.58-1.34,0.51-2.15C96.06,40.21,94.27,38.57,92.25,38.57z"/>
	<path class="st3" d="M91.16,108.95c-1.94,0-3.54,1.29-4.01,3.06c0,0.01-0.01,0.01-0.01,0.02c-0.49,1.39-3.06,7.47-3.88,9.42
		c-0.05,0.1-0.09,0.2-0.12,0.3c-0.01,0.02-0.01,0.04-0.02,0.05c0,0,0-0.01,0.01-0.02c-0.16,0.46-0.25,0.96-0.24,1.48
		c0.05,2.32,1.98,4.21,4.31,4.21c1.49,0,2.78-0.77,3.5-1.93c0.06-0.06,0.11-0.15,0.17-0.28c0,0,0-0.01,0-0.01
		c0.12-0.24,0.23-0.5,0.3-0.76c0.95-2.38,3.41-8.25,4-9.56c0,0,0-0.01,0-0.01c0.23-0.53,0.35-1.12,0.34-1.73
		C95.45,110.85,93.51,108.95,91.16,108.95z"/>
	<path class="st3" d="M150.43,39.24c-0.47-0.4-1.08-0.63-1.83-0.69h-38.49c-1.26,0.09-2.22,0.81-2.87,2.16
		c-0.09,0.19-0.13,0.41-0.13,0.63l0.09,14.51c-0.01,0.15-0.02,0.3,0,0.46c0.13,1.46,1.42,2.64,2.88,2.64c0.11,0,0.22-0.01,0.33-0.02
		h30.61c0.13,0,0.26,0.01,0.38,0.04c0.22,0.05,0.44,0.11,0.66,0.17c0.28,0.08,0.53,0.17,0.76,0.28c0.23,0.11,0.43,0.26,0.61,0.45
		c0.37,0.28,0.66,0.62,0.87,1.02c0.21,0.39,0.37,0.81,0.49,1.25c0.1,0.39,0.19,0.78,0.26,1.17c0.02,0.1,0.03,0.21,0.02,0.31
		c-0.01,0.51,0.03,4.05,0.03,4.55c0,0.55-0.06,1.05-0.17,1.49c-0.12,0.44-0.32,0.82-0.61,1.14c-0.2,0.22-0.44,0.43-0.73,0.62
		c-0.28,0.19-0.56,0.34-0.84,0.45c-0.24,0.1-0.48,0.16-0.72,0.2c-0.08,0.01-0.15,0.01-0.23,0.01H115.7c-0.25,0-0.5-0.06-0.74-0.17
		l-0.19-0.09c-0.46-0.22-0.82-0.62-0.95-1.1c0,0,0-0.01,0-0.01c-0.08-0.3-0.15-0.82-0.18-1.3c0-0.11,0-0.23-0.01-0.35
		c-0.16-1.79-1.75-3.24-3.54-3.24c-1.7,0-2.97,1.3-2.96,2.96c0,0,0,0.01,0,0.01c-0.01,0.78,0.15,1.98,0.26,2.64
		c0.13,0.77,0.35,1.49,0.65,2.15c0.28,0.63,0.65,1.26,1.09,1.89c0.04,0.06,0.09,0.12,0.14,0.18c0.51,0.59,1.08,1.08,1.7,1.47
		c0.65,0.41,1.37,0.73,2.15,0.95c0.74,0.21,1.78,0.47,2.44,0.47h26.07c1.79,0,3.92-0.95,4.67-1.23c0.75-0.28,1.43-0.71,2.04-1.28
		c0.7-0.66,1.3-1.4,1.79-2.2c0.5-0.8,0.86-1.65,1.1-2.53c0.23-0.85,0.38-1.72,0.46-2.6c0.01-0.06,0.01-0.12,0.01-0.19
		c-0.01-1.1-0.12-5.19-0.24-6.22c-0.13-1.06-0.39-2.11-0.78-3.17c-0.4-1.06-0.98-2.04-1.76-2.96c-0.6-0.73-1.27-1.33-1.99-1.82
		c-0.73-0.49-2.09-1.82-4.95-1.82h-26.6c-0.95,0-1.77-0.81-1.77-1.75l-0.04-4.28c0-0.83,0.64-1.47,1.48-1.47h33.92
		c0.04,0,0.06,0,0.08,0c1.75-0.04,3.04-1.47,2.88-3.24C151.81,40.75,151.24,39.83,150.43,39.24z"/>
	<path class="st4" d="M137.01,50.36"/>
	<path class="st3" d="M205.99,1.98c-5.89-2.46-12.61-1.93-18.86-1.93H3.4c-0.99,0-1.75,0.36-2.29,0.9C1.09,0.97,1.06,1,1.04,1.02
		C1,1.06,0.97,1.1,0.93,1.14c-0.54,0.54-0.9,1.29-0.9,2.28c0,0.65,0,1.38,0,2.16c0,0.36,0,0.74,0,1.13c0,0.05,0,0.09,0,0.14
		c0,7.21-0.01,18.86-0.01,32.25c0,0.25,0,0.51,0,0.76c0,3.7,0,7.52,0,11.41c0,0.77,0,1.54,0,2.31c0,1.47,0,2.94,0,4.42
		c0,1.1,0,2.21,0,3.31c0,0.42,0,0.83,0,1.25c0,0.88,0,1.76,0,2.64c0,1.63,0,3.26,0,4.89c0,0.96,0,1.93,0,2.89c0,1.24,0,2.48,0,3.71
		c0,0.06,0,0.12,0,0.17C0.01,98.38,0,118.33,0,127.43c0,8.35,4.58,16.55,11.76,20.79c7.21,4.26,15.7,3.66,23.76,3.67
		c22.52,0.01,173.02-0.01,183.34,0c1.84,0,3.37-1.53,3.37-3.37c0-17.62,0.01-90.01,0.01-112.38c0-0.7,0-1.36,0-1.96
		c0-0.38,0-0.73,0-1.06c0-0.36,0-0.68,0-0.99c0-0.47,0-0.88,0-1.23c0-0.32,0-0.57,0-0.78c0-0.13,0-0.24,0-0.33
		C222.22,18.15,217.04,6.59,205.99,1.98z M215.48,145.14c-15.13,0-166.33,0.03-184.88,0.02c-4.48,0-8.75-0.04-13.04-1.58
		c-2.97-1.07-5.23-2.91-7.19-5.35c-0.3-0.38-1.29-2.02-1.76-2.96c-0.41-0.82-0.69-1.54-1.11-2.95c-0.26-0.89-0.46-1.8-0.62-2.72
		c-0.02-0.11-0.03-0.18-0.04-0.24c0-0.03,0-0.05-0.01-0.1c-0.04-0.3-0.06-0.6-0.08-0.9c-0.02-0.33-0.02-0.66-0.02-1
		c0-0.65,0-8.2,0.01-19.24c0,0,0,0,0,0c0-17.22,0.01-42.96,0.02-64.31C6.76,25.62,6.77,10.6,6.77,6.78h186.91
		c2.79,0,5.5,0.17,8.23,0.91c6.4,1.75,10.4,6.81,12.21,12.45c0.39,1.23,0.69,2.47,0.92,3.74c0.04,0.19,0.18,1.13,0.21,1.29
		c0.06,0.5,0.11,1.01,0.16,1.52c0.09,1.11,0.08,2.23,0.08,3.34v78.08V145.14z"/>
</g>
</svg>
